<svg width="397" height="305" viewBox="0 0 397 305" fill="none" xmlns="http://www.w3.org/2000/svg">
<path d="M364.042 225C370.034 226.6 388.511 229.667 397 231V166.5L357.05 186L281.146 197.5L218.725 242L115.355 247L0 269L1.99747 298.5C4.49432 300.167 13.8825 303.7 31.4604 304.5C49.0382 305.3 77.0696 293.5 88.888 287.5C102.038 278.667 139.624 266.3 184.767 287.5C229.91 308.7 264.5 287 276.152 273.5C292.132 256.3 310.109 241.667 317.101 236.5C331.483 222.9 354.387 223.167 364.042 225Z" fill="#982929"/>
<path d="M339.415 197.917C373.764 203.544 392.117 187.535 397 178.828V109L362.651 154.212L275.264 171.292L231.823 204.95L130.797 214.997L70.6872 223.035L3 260.209V291.355C20.3764 298.187 41.8949 290.183 50.4821 285.327C78.7692 264.831 98.3008 256.693 104.531 255.186C132.01 246.746 170.197 254.683 185.856 259.707C195.151 262.52 210.944 263.558 217.679 263.726C235.864 262.922 250.85 246.981 256.069 239.11C267.384 222.231 278.968 209.304 283.346 204.95C296.682 192.894 326.282 195.238 339.415 197.917Z" fill="#BA3939"/>
<path d="M355.633 177.964C377.426 177.166 392.292 150.049 397 136.589V1H3.00003V260.713C17.1255 265.1 39.4908 257.224 48.9078 252.738C78.7731 233.197 102.047 226.982 109.95 226.318C124.883 223.925 161.575 232.299 178.055 236.786C197.427 241.173 216.732 232.964 223.963 228.311C229.209 225.121 252.718 202.058 263.817 190.925C282.382 173.378 315.61 175.638 329.904 178.961C337.169 179.759 350.083 178.629 355.633 177.964Z" fill="#D14545"/>
<path d="M376.895 84.0862C369.619 30.4312 380.6 5.67248 387 0H3V229.735C14.1158 231.237 37.3579 226.732 61.6105 206.211C85.8632 185.69 147 203.709 177.821 207.713C202.478 210.916 241.316 178.349 257.653 161.666C262.2 156.827 282.107 148.052 325.358 151.655C368.608 155.259 377.737 108.111 376.895 84.0862Z" fill="#C13535"/>
</svg>
