<svg width="13" height="13" viewBox="0 0 13 13" fill="none" xmlns="http://www.w3.org/2000/svg">
<path d="M6.5 7.04175C7.39746 7.04175 8.125 6.31421 8.125 5.41675C8.125 4.51929 7.39746 3.79175 6.5 3.79175C5.60254 3.79175 4.875 4.51929 4.875 5.41675C4.875 6.31421 5.60254 7.04175 6.5 7.04175Z" stroke="white" stroke-width="2" stroke-linecap="round" stroke-linejoin="round"/>
<path d="M6.49996 1.08337C5.35069 1.08337 4.24849 1.53992 3.43583 2.35258C2.62317 3.16524 2.16663 4.26744 2.16663 5.41671C2.16663 6.44154 2.38438 7.11212 2.97913 7.85421L6.49996 11.9167L10.0208 7.85421C10.6155 7.11212 10.8333 6.44154 10.8333 5.41671C10.8333 4.26744 10.3767 3.16524 9.56409 2.35258C8.75143 1.53992 7.64923 1.08337 6.49996 1.08337V1.08337Z" stroke="white" stroke-width="2" stroke-linecap="round" stroke-linejoin="round"/>
</svg>
